<svg xmlns="http://www.w3.org/2000/svg" width="32.356" height="28.958" viewBox="0 0 32.356 28.958">
  <path id="Shape_12" data-name="Shape 12" d="M1861.763,2270.337h-20.605l-4.106,4.055a1.522,1.522,0,0,1-1.073.439h0l-.019,0a1.524,1.524,0,0,1-1.054-.437c-.006-.006-.011-.014-.017-.02a1.52,1.52,0,0,1-.169-.2c-.02-.029-.033-.062-.05-.092a1.415,1.415,0,0,1-.089-.162c-.012-.027-.017-.057-.027-.085a1.438,1.438,0,0,1-.062-.2,1.479,1.479,0,0,1-.031-.3h0v-3h-2.023a1.507,1.507,0,0,1-1.516-1.5v-21.468a1.507,1.507,0,0,1,1.517-1.5h29.323a1.507,1.507,0,0,1,1.517,1.5v21.468A1.507,1.507,0,0,1,1861.763,2270.337Z" transform="translate(-1830.924 -2245.873)" fill="#e5e5e5"/>
</svg>
