<svg
          xmlns="http://www.w3.org/2000/svg"
          width="17.029"
          height="15.331"
          viewBox="0 0 17.029 15.331"
        >
          <path
            id="Shape_8"
            data-name="Shape 8"
            d="M2342.128,1818.322a4.265,4.265,0,0,0-3.209,1.4h0l-.514.666-.514-.626h0a4.3,4.3,0,0,0-3.209-1.444,4.69,4.69,0,0,0-3.387,1.444,5.028,5.028,0,0,0,0,6.967l6.357,6.6a1.043,1.043,0,0,0,1.512,0l6.357-6.595a5.029,5.029,0,0,0,0-6.967,4.691,4.691,0,0,0-3.387-1.444Z"
            transform="translate(-2329.888 -1818.322)"
            fill="#fff"
          />
        </svg>